<svg width="42" height="42" viewBox="0 0 42 42" fill="none" xmlns="http://www.w3.org/2000/svg">
<path fill-rule="evenodd" clip-rule="evenodd" d="M33.25 8.75H31.5V5.25C31.5 4.2835 30.7165 3.5 29.75 3.5C28.7835 3.5 28 4.2835 28 5.25V8.75H14V5.25C14 4.2835 13.2165 3.5 12.25 3.5C11.2835 3.5 10.5 4.2835 10.5 5.25V8.75H8.75C5.8505 8.75 3.5 11.1005 3.5 14V33.25C3.5 36.1495 5.8505 38.5 8.75 38.5H33.25C36.1495 38.5 38.5 36.1495 38.5 33.25V14C38.5 11.1005 36.1495 8.75 33.25 8.75ZM7 14C7 13.0335 7.7835 12.25 8.75 12.25H33.25C34.2165 12.25 35 13.0335 35 14V15.75H7V14ZM33.25 35C34.2165 35 35 34.2165 35 33.25V19.25H7V33.25C7 34.2165 7.7835 35 8.75 35H33.25Z" fill="#3a3a3a"/>
</svg>
