<svg width="18" height="18" viewBox="0 0 18 18" fill="none" xmlns="http://www.w3.org/2000/svg">
<path fill-rule="evenodd" clip-rule="evenodd" d="M14.2038 7.79601L15.9998 6C16.545 5.45475 16.8176 5.18213 16.9634 4.88803C17.2407 4.32848 17.2407 3.67153 16.9634 3.11197C16.8176 2.81788 16.545 2.54525 15.9998 2C15.4545 1.45475 15.1819 1.18213 14.8878 1.03639C14.3282 0.759109 13.6713 0.759109 13.1117 1.03639C12.8176 1.18213 12.545 1.45475 11.9998 2L10.1811 3.81866C11.145 5.46926 12.5311 6.84482 14.2038 7.79601ZM8.72666 5.27312L1.85615 12.1436C1.43109 12.5687 1.21856 12.7812 1.07883 13.0423C0.939091 13.3034 0.880146 13.5981 0.762256 14.1876L0.14686 17.2646C0.0803376 17.5972 0.0470765 17.7635 0.141684 17.8581C0.236293 17.9527 0.402598 17.9194 0.735208 17.8529L3.81219 17.2375C4.40164 17.1196 4.69637 17.0607 4.95746 16.9209C5.21856 16.7812 5.43109 16.5687 5.85615 16.1436L12.7456 9.25422C11.1239 8.23857 9.7522 6.87628 8.72666 5.27312Z" fill="#3A3A3A"/>
</svg>
