<svg width="69" height="69" viewBox="0 0 69 69" fill="none" xmlns="http://www.w3.org/2000/svg">
<path fill-rule="evenodd" clip-rule="evenodd" d="M51.75 54.625V46C51.75 44.4122 50.4628 43.125 48.875 43.125C47.2872 43.125 46 44.4122 46 46V54.625C46 56.2128 44.7128 57.5 43.125 57.5H14.375C12.7872 57.5 11.5 56.2128 11.5 54.625V14.375C11.5 12.7872 12.7872 11.5 14.375 11.5H43.125C44.7128 11.5 46 12.7872 46 14.375V23C46 24.5878 47.2872 25.875 48.875 25.875C50.4628 25.875 51.75 24.5878 51.75 23V14.375C51.75 9.61154 47.8885 5.75 43.125 5.75H14.375C9.61154 5.75 5.75 9.61154 5.75 14.375V54.625C5.75 59.3885 9.61154 63.25 14.375 63.25H43.125C47.8885 63.25 51.75 59.3885 51.75 54.625ZM56.6662 26.7087L62.4162 32.4587C62.9605 32.9986 63.2667 33.7334 63.2667 34.5C63.2667 35.2666 62.9605 36.0014 62.4162 36.5413L56.6662 42.2913C56.1264 42.8355 55.3916 43.1417 54.625 43.1417C53.8584 43.1417 53.1236 42.8355 52.5838 42.2913C52.0395 41.7514 51.7333 41.0166 51.7333 40.25C51.7333 39.4834 52.0395 38.7486 52.5838 38.2088L53.4463 37.375H34.5C32.9122 37.375 31.625 36.0878 31.625 34.5C31.625 32.9122 32.9122 31.625 34.5 31.625H53.4463L52.5838 30.7913C51.4564 29.6639 51.4564 27.8361 52.5838 26.7087C53.7111 25.5814 55.5389 25.5814 56.6662 26.7087Z" fill="white"/>
</svg>
