<svg width="9" height="10" viewBox="0 0 9 10" fill="none" xmlns="http://www.w3.org/2000/svg">
<path d="M3 0.794006L2.63652 0.450666L3 0.0658664L3.36348 0.450666L3 0.794006ZM3.5 6.74894C3.5 7.02508 3.27614 7.24894 3 7.24894C2.72386 7.24894 2.5 7.02508 2.5 6.74894L3.5 6.74894ZM1.13652 2.03865L2.63652 0.450666L3.36348 1.13735L1.86348 2.72533L1.13652 2.03865ZM3.36348 0.450666L4.86348 2.03865L4.13652 2.72533L2.63652 1.13735L3.36348 0.450666ZM3.5 0.794006L3.5 6.74894L2.5 6.74894L2.5 0.794006L3.5 0.794006Z" fill="#3A3A3A"/>
<path d="M6 8.7339L5.63652 9.07724L6 9.46204L6.36348 9.07724L6 8.7339ZM6.5 2.77897C6.5 2.50282 6.27614 2.27897 6 2.27897C5.72386 2.27897 5.5 2.50282 5.5 2.77897L6.5 2.77897ZM4.13652 7.48926L5.63652 9.07724L6.36348 8.39056L4.86348 6.80258L4.13652 7.48926ZM6.36348 9.07724L7.86348 7.48926L7.13652 6.80258L5.63652 8.39056L6.36348 9.07724ZM6.5 8.7339L6.5 2.77897L5.5 2.77897L5.5 8.7339L6.5 8.7339Z" fill="#3A3A3A"/>
</svg>
