<svg width="42" height="42" viewBox="0 0 42 42" fill="none" xmlns="http://www.w3.org/2000/svg">
<path d="M24.5 28.5833V36.75H26.25L36.75 26.25V24.5H28.5833C26.6584 24.5 25.696 24.5 25.098 25.098C24.5 25.696 24.5 26.6584 24.5 28.5833Z" fill="#7E869E" fill-opacity="0.25"/>
<path d="M24.8003 36.75H12.25C8.95017 36.75 7.30025 36.75 6.27513 35.7249C5.25 34.6997 5.25 33.0498 5.25 29.75V12.25C5.25 8.95017 5.25 7.30025 6.27513 6.27513C7.30025 5.25 8.95017 5.25 12.25 5.25H29.75C33.0498 5.25 34.6997 5.25 35.7249 6.27513C36.75 7.30025 36.75 8.95017 36.75 12.25V24.8003C36.75 25.5156 36.75 25.8732 36.6168 26.1948C36.4836 26.5164 36.2307 26.7693 35.7249 27.2751L27.2751 35.7249C26.7693 36.2307 26.5164 36.4836 26.1948 36.6168C25.8732 36.75 25.5156 36.75 24.8003 36.75Z" stroke="#FDFDFD" stroke-width="1.2"/>
<path d="M24.5 36.75V28.5833C24.5 26.6584 24.5 25.696 25.098 25.098C25.696 24.5 26.6584 24.5 28.5833 24.5H36.75" stroke="#FDFDFD" stroke-width="1.2"/>
</svg>
