<svg width="51" height="51" viewBox="0 0 51 51" fill="none" xmlns="http://www.w3.org/2000/svg">
<path fill-rule="evenodd" clip-rule="evenodd" d="M36.125 14.875C36.125 9.00697 31.368 4.25 25.5 4.25C19.632 4.25 14.875 9.00697 14.875 14.875C14.875 20.743 19.632 25.5 25.5 25.5H23.375C12.8126 25.5 4.25 34.0626 4.25 44.625C4.25 45.7986 5.20139 46.75 6.375 46.75H44.625C45.7986 46.75 46.75 45.7986 46.75 44.625C46.75 34.0626 38.1874 25.5 27.625 25.5H25.5C28.3179 25.5 31.0204 24.3806 33.013 22.388C35.0056 20.3954 36.125 17.6929 36.125 14.875ZM23.375 29.75C15.9792 29.7481 9.70529 35.18 8.64875 42.5H42.3512C41.2947 35.18 35.0208 29.7481 27.625 29.75H23.375ZM19.125 14.875C19.125 18.3958 21.9792 21.25 25.5 21.25C27.1908 21.25 28.8123 20.5784 30.0078 19.3828C31.2034 18.1873 31.875 16.5658 31.875 14.875C31.875 11.3542 29.0208 8.5 25.5 8.5C21.9792 8.5 19.125 11.3542 19.125 14.875Z" fill="white"/>
</svg>
