<svg width="42" height="42" viewBox="0 0 42 42" fill="none" xmlns="http://www.w3.org/2000/svg">
<circle cx="21" cy="14" r="6" stroke="#FDFDFD" stroke-width="2" stroke-linecap="round"/>
<path d="M26.0694 13.625C26.633 12.6488 27.5613 11.9365 28.65 11.6448C29.7388 11.3531 30.8988 11.5058 31.875 12.0694C32.8512 12.633 33.5635 13.5613 33.8552 14.65C34.1469 15.7388 33.9942 16.8988 33.4306 17.875C32.867 18.8512 31.9387 19.5635 30.85 19.8552C29.7612 20.1469 28.6012 19.9942 27.625 19.4306C26.6488 18.867 25.9365 17.9387 25.6448 16.85C25.3531 15.7612 25.5058 14.6012 26.0694 13.625L26.0694 13.625Z" stroke="#FDFDFD" stroke-width="2"/>
<path d="M8.56939 13.625C9.13298 12.6488 10.0613 11.9365 11.15 11.6448C12.2388 11.3531 13.3988 11.5058 14.375 12.0694C15.3512 12.633 16.0635 13.5613 16.3552 14.65C16.6469 15.7388 16.4942 16.8988 15.9306 17.875C15.367 18.8512 14.4387 19.5635 13.35 19.8552C12.2612 20.1469 11.1012 19.9942 10.125 19.4306C9.14884 18.867 8.43655 17.9387 8.14482 16.85C7.85308 15.7612 8.00581 14.6012 8.56939 13.625L8.56939 13.625Z" stroke="#FDFDFD" stroke-width="2"/>
<path d="M29.5429 31.5L28.5625 31.6974L28.7242 32.5H29.5429V31.5ZM36.5141 30.3933L37.479 30.1308L36.5141 30.3933ZM25.8665 25.7434L25.2616 24.9471L24.105 25.8256L25.3383 26.5926L25.8665 25.7434ZM35.6172 30.5H29.5429V32.5H35.6172V30.5ZM35.5492 30.6559C35.5459 30.644 35.5432 30.6196 35.5499 30.59C35.5562 30.5622 35.5683 30.541 35.5798 30.5271C35.6025 30.4996 35.6223 30.5 35.6172 30.5V32.5C36.7925 32.5 37.8317 31.4271 37.479 30.1308L35.5492 30.6559ZM29.75 25.5C31.711 25.5 33.0024 26.3211 33.8902 27.3574C34.8052 28.4253 35.2997 29.7389 35.5492 30.6559L37.479 30.1308C37.1917 29.0748 36.596 27.4416 35.4091 26.0562C34.195 24.6391 32.3728 23.5 29.75 23.5V25.5ZM26.4713 26.5398C27.2725 25.9312 28.327 25.5 29.75 25.5V23.5C27.8832 23.5 26.4051 24.0785 25.2616 24.9471L26.4713 26.5398ZM25.3383 26.5926C27.4153 27.8844 28.2413 30.1022 28.5625 31.6974L30.5232 31.3026C30.1582 29.4901 29.1609 26.6148 26.3946 24.8943L25.3383 26.5926Z" fill="#FDFDFD"/>
<path d="M16.1335 25.7434L16.6617 26.5926L17.895 25.8255L16.7384 24.9471L16.1335 25.7434ZM5.48591 30.3933L6.45082 30.6559V30.6559L5.48591 30.3933ZM12.4571 31.5V32.5H13.2758L13.4374 31.6974L12.4571 31.5ZM12.25 25.5C13.673 25.5 14.7275 25.9312 15.5287 26.5397L16.7384 24.9471C15.5949 24.0785 14.1168 23.5 12.25 23.5V25.5ZM6.45082 30.6559C6.70035 29.7389 7.19486 28.4253 8.1098 27.3574C8.99761 26.3211 10.289 25.5 12.25 25.5V23.5C9.62724 23.5 7.80506 24.6391 6.59097 26.0562C5.40402 27.4416 4.80835 29.0748 4.52099 30.1308L6.45082 30.6559ZM6.38276 30.5C6.3777 30.5 6.39748 30.4996 6.42024 30.5271C6.43174 30.541 6.44378 30.5622 6.45009 30.59C6.4568 30.6196 6.45406 30.644 6.45082 30.6559L4.52099 30.1308C4.16824 31.4271 5.20747 32.5 6.38276 32.5V30.5ZM12.4571 30.5H6.38276V32.5H12.4571V30.5ZM13.4374 31.6974C13.7587 30.1022 14.5846 27.8843 16.6617 26.5926L15.6054 24.8942C12.8391 26.6147 11.8418 29.4901 11.4768 31.3026L13.4374 31.6974Z" fill="#FDFDFD"/>
<path d="M21 24.5C27.9151 24.5 29.3652 29.965 29.6693 32.257C29.7419 32.8045 29.3023 33.25 28.75 33.25H13.25C12.6977 33.25 12.2581 32.8045 12.3307 32.257C12.6348 29.965 14.0849 24.5 21 24.5Z" stroke="#FDFDFD" stroke-width="2" stroke-linecap="round"/>
</svg>
